<svg xmlns="http://www.w3.org/2000/svg" version="1.1" xmlns:xlink="http://www.w3.org/1999/xlink" xmlns:svgjs="http://svgjs.dev/svgjs" width="1500" height="1500" viewBox="0 0 1500 1500"><rect width="1500" height="1500" fill="#1e421d"></rect><g transform="matrix(0.6666666666666666,0,0,0.6666666666666666,248.7765957446809,563.9074118571428)"><svg viewBox="0 0 376 140" data-background-color="#1e421d" preserveAspectRatio="xMidYMid meet" height="558" width="1500" xmlns="http://www.w3.org/2000/svg" xmlns:xlink="http://www.w3.org/1999/xlink"><g id="tight-bounds" transform="matrix(1,0,0,1,0.46023999999999887,0.03521499999999378)"><svg viewBox="0 0 375.07953 139.92994" height="139.92994" width="375.07953"><g><svg></svg></g><g><svg viewBox="0 0 375.07953 139.92994" height="139.92994" width="375.07953"><g transform="matrix(1,0,0,1,-10.22024,-57.52537000000001)"><path d="M10.22 189.675v-132.15h375.08v132.15h-174.467l0-4.441h170.027v-123.268h-366.2v123.268h18.992l0 4.441z" fill="#e1e587" fill-rule="nonzero" stroke="none" stroke-width="1" stroke-linecap="butt" stroke-linejoin="miter" stroke-miterlimit="10" stroke-dasharray="" stroke-dashoffset="0" font-family="none" font-weight="none" font-size="none" text-anchor="none" style="mix-blend-mode: normal" data-fill-palette-color="tertiary"></path><g><path d="M59.915 185.69c0 1.609-0.304 2.998-0.913 4.166-0.609 1.171-1.488 2.02-2.637 2.548v0l2.069 3.794h-1.846l-1.805-3.307c-0.473 0.068-0.92 0.101-1.339 0.101v0c-1.366 0-2.532-0.304-3.497-0.912-0.968-0.609-1.705-1.461-2.211-2.556-0.508-1.095-0.763-2.373-0.763-3.834v0c0-1.461 0.254-2.739 0.763-3.834 0.506-1.095 1.243-1.947 2.211-2.556 0.966-0.609 2.131-0.913 3.497-0.913v0c1.366 0 2.533 0.304 3.501 0.913 0.966 0.609 1.703 1.461 2.212 2.556 0.506 1.095 0.759 2.373 0.758 3.834zM48.9 185.69c0 1.745 0.379 3.127 1.136 4.146 0.757 1.022 1.893 1.534 3.408 1.534v0c1.515 0 2.651-0.511 3.408-1.534 0.757-1.02 1.136-2.402 1.136-4.146v0c0-1.745-0.379-3.128-1.136-4.151-0.757-1.02-1.893-1.53-3.408-1.529v0c-1.515 0-2.651 0.51-3.408 1.529-0.757 1.022-1.136 2.406-1.136 4.151zM73.06 192.749h-1.785l-0.284-1.481c-0.622 0.582-1.22 1.014-1.793 1.298-0.576 0.284-1.25 0.426-2.021 0.426v0c-0.96 0-1.707-0.318-2.239-0.953-0.536-0.636-0.803-1.481-0.803-2.536v0-7.343h1.785v7.1c0 0.649 0.149 1.166 0.446 1.55 0.298 0.387 0.724 0.58 1.278 0.58v0c0.636 0 1.194-0.115 1.676-0.345 0.479-0.23 0.982-0.575 1.509-1.034v0-7.851h1.785v8.236zM85.353 192.749h-1.785l-0.284-1.521c-0.527 0.582-1.098 1.021-1.712 1.318-0.617 0.298-1.31 0.446-2.081 0.446v0c-0.96 0-1.738-0.275-2.333-0.823-0.595-0.546-0.893-1.273-0.893-2.179v0c0-1.177 0.473-2.042 1.42-2.596 0.947-0.554 2.164-0.832 3.652-0.832v0c0.541 0 1.136 0.034 1.785 0.101v0-0.73c0-0.73-0.2-1.316-0.601-1.757-0.398-0.438-0.914-0.657-1.549-0.657v0c-0.757 0-1.443 0.101-2.057 0.304-0.617 0.203-1.25 0.521-1.899 0.954v0-1.724c0.636-0.419 1.285-0.714 1.947-0.885 0.663-0.168 1.42-0.252 2.272-0.251v0c1.082 0 1.965 0.345 2.65 1.034 0.682 0.69 1.022 1.603 1.022 2.739v0 4.706zM79.856 191.491c0.649 0 1.231-0.135 1.745-0.405 0.514-0.27 1.021-0.663 1.521-1.177v0-1.988h-1.866c-2.042 0-3.063 0.656-3.063 1.968v0c0 0.487 0.156 0.876 0.466 1.168 0.311 0.289 0.71 0.434 1.197 0.434zM88.66 192.749v-15.295h1.785v15.295zM95.232 179.766c-0.379 0-0.687-0.122-0.925-0.365-0.235-0.243-0.353-0.554-0.353-0.933v0c0-0.379 0.118-0.69 0.353-0.933 0.238-0.243 0.546-0.365 0.925-0.365v0c0.379 0 0.687 0.122 0.925 0.365 0.235 0.243 0.353 0.554 0.353 0.933v0c0 0.379-0.118 0.69-0.353 0.933-0.238 0.243-0.546 0.365-0.925 0.365zM94.34 182.16h1.785v10.589h-1.785zM102.393 178.387v3.773h2.921v1.542h-2.921v6.065c0 0.5 0.111 0.902 0.333 1.205 0.224 0.306 0.553 0.458 0.986 0.458v0c0.298 0 0.565-0.031 0.803-0.093 0.235-0.059 0.502-0.157 0.799-0.292v0 1.582c-0.311 0.149-0.609 0.247-0.892 0.297-0.284 0.046-0.629 0.069-1.035 0.068v0c-0.866 0-1.546-0.277-2.041-0.831-0.492-0.554-0.738-1.292-0.738-2.211v0-6.248h-2.028v-1.542h2.028v-2.84zM115.092 182.16h1.907l-6.066 15.295h-1.825l1.825-4.584-4.199-10.711h1.826l3.307 8.682zM124.647 181.917c0.92 0 1.704 0.243 2.353 0.73 0.649 0.487 1.14 1.15 1.472 1.988 0.33 0.838 0.495 1.785 0.495 2.84v0c0 1.055-0.193 1.997-0.58 2.828-0.384 0.833-0.937 1.486-1.659 1.959-0.725 0.473-1.581 0.71-2.568 0.71v0c-0.5 0-0.967-0.054-1.4-0.162-0.433-0.108-0.893-0.264-1.379-0.467v0 5.112h-1.786v-12.942l-0.446-2.353h1.785l0.264 1.359c0.92-1.068 2.069-1.603 3.449-1.602zM123.977 191.39c0.974 0 1.728-0.365 2.264-1.096 0.533-0.73 0.799-1.67 0.799-2.819v0c0-1.15-0.206-2.089-0.616-2.82-0.414-0.73-1.06-1.095-1.94-1.095v0c-0.622 0-1.181 0.128-1.675 0.385-0.492 0.257-0.968 0.636-1.428 1.136v0 5.903c0.879 0.27 1.745 0.406 2.596 0.406zM137.244 181.917h0.629v1.967h-0.305c-0.636 0-1.206 0.115-1.712 0.345-0.508 0.23-0.932 0.561-1.27 0.994v0 7.526h-1.785v-8.236l-0.446-2.353h1.785l0.365 1.887c0.554-0.811 1.025-1.37 1.412-1.676 0.384-0.303 0.826-0.454 1.327-0.454zM145.135 192.992c-1.542 0-2.745-0.504-3.611-1.513-0.866-1.006-1.298-2.348-1.298-4.024v0c0-1.677 0.433-3.02 1.298-4.029 0.866-1.006 2.069-1.509 3.611-1.509v0c1.542 0 2.745 0.503 3.611 1.509 0.866 1.009 1.298 2.352 1.298 4.029v0c0 1.677-0.433 3.018-1.298 4.024-0.866 1.009-2.069 1.513-3.611 1.513zM145.135 191.451c0.987 0 1.731-0.365 2.231-1.096 0.5-0.73 0.751-1.697 0.751-2.9v0c0-1.204-0.25-2.171-0.751-2.901-0.5-0.73-1.244-1.095-2.231-1.096v0c-0.987 0-1.727 0.365-2.219 1.096-0.495 0.73-0.742 1.697-0.743 2.901v0c0 1.204 0.247 2.171 0.743 2.9 0.492 0.73 1.232 1.095 2.219 1.096zM162.925 192.749h-1.785l-0.263-1.4c-0.487 0.541-1.035 0.947-1.644 1.217-0.609 0.27-1.292 0.406-2.048 0.406v0c-1.312 0-2.319-0.507-3.023-1.521-0.703-1.014-1.055-2.313-1.055-3.895v0c0-1.082 0.192-2.049 0.576-2.901 0.387-0.852 0.943-1.521 1.668-2.008 0.722-0.487 1.584-0.73 2.584-0.73v0c0.487 0 0.947 0.057 1.38 0.17 0.433 0.116 0.893 0.283 1.379 0.499v0-5.132h1.785v12.942zM157.469 191.329c0.649 0 1.228-0.133 1.736-0.398 0.506-0.262 1.002-0.65 1.489-1.164v0-5.822c-0.866-0.298-1.724-0.446-2.576-0.446v0c-0.987 0-1.747 0.375-2.28 1.124-0.536 0.752-0.803 1.716-0.804 2.892v0c0 1.122 0.192 2.038 0.576 2.747 0.387 0.711 1.006 1.067 1.859 1.067zM175.705 192.749h-1.785l-0.284-1.481c-0.622 0.582-1.221 1.014-1.797 1.298-0.573 0.284-1.246 0.426-2.016 0.426v0c-0.96 0-1.708-0.318-2.244-0.953-0.533-0.636-0.799-1.481-0.799-2.536v0-7.343h1.785v7.1c0 0.649 0.149 1.166 0.446 1.55 0.298 0.387 0.724 0.58 1.278 0.58v0c0.636 0 1.194-0.115 1.676-0.345 0.479-0.23 0.982-0.575 1.509-1.034v0-7.851h1.785v8.236zM183.678 192.992c-0.987 0-1.853-0.237-2.597-0.71-0.744-0.473-1.312-1.127-1.704-1.959-0.392-0.83-0.588-1.773-0.588-2.828v0c0-1.068 0.196-2.026 0.588-2.872 0.392-0.844 0.96-1.507 1.704-1.988 0.744-0.479 1.616-0.718 2.617-0.718v0c0.703 0 1.319 0.074 1.846 0.223 0.527 0.149 1.028 0.419 1.501 0.811v0 1.724h-0.081c-0.487-0.406-0.99-0.696-1.509-0.872-0.522-0.176-1.114-0.264-1.777-0.264v0c-0.96 0-1.701 0.372-2.224 1.116-0.519 0.744-0.779 1.697-0.779 2.86v0c0 1.122 0.26 2.045 0.779 2.767 0.522 0.725 1.256 1.087 2.203 1.088v0c0.703 0 1.332-0.112 1.887-0.337 0.554-0.222 1.102-0.576 1.643-1.063v0h0.081v1.724c-0.5 0.473-1.037 0.807-1.611 1.002-0.576 0.197-1.236 0.296-1.979 0.296zM193.415 192.992c-0.649 0-1.289-0.099-1.919-0.296-0.627-0.195-1.218-0.475-1.773-0.84v0-1.866c1.231 0.947 2.448 1.42 3.651 1.42v0c0.703 0 1.271-0.146 1.704-0.438 0.433-0.289 0.649-0.678 0.649-1.164v0c0-0.338-0.104-0.615-0.312-0.832-0.211-0.216-0.472-0.385-0.783-0.507-0.311-0.122-0.757-0.27-1.339-0.446v0c-0.717-0.203-1.309-0.403-1.777-0.601-0.465-0.195-0.86-0.485-1.185-0.872-0.325-0.384-0.487-0.887-0.487-1.509v0c0-0.947 0.358-1.704 1.076-2.272 0.717-0.568 1.657-0.852 2.819-0.852v0c1.163 0 2.218 0.304 3.165 0.912v0 1.806c-0.527-0.406-1.039-0.696-1.534-0.872-0.492-0.176-1.009-0.264-1.55-0.264v0c-0.676 0-1.21 0.122-1.602 0.365-0.392 0.243-0.588 0.582-0.588 1.014v0c0 0.311 0.105 0.568 0.316 0.771 0.208 0.203 0.468 0.365 0.779 0.487 0.311 0.122 0.757 0.27 1.339 0.446v0c0.73 0.216 1.325 0.422 1.785 0.617 0.46 0.197 0.852 0.495 1.177 0.892 0.325 0.4 0.487 0.918 0.486 1.554v0c0 0.649-0.176 1.227-0.527 1.733-0.352 0.508-0.838 0.905-1.461 1.188-0.622 0.284-1.325 0.426-2.109 0.426z" fill="#e1e587" fill-rule="nonzero" stroke="none" stroke-width="1" stroke-linecap="butt" stroke-linejoin="miter" stroke-miterlimit="10" stroke-dasharray="" stroke-dashoffset="0" font-family="none" font-weight="none" font-size="none" text-anchor="none" style="mix-blend-mode: normal" data-fill-palette-color="secondary" id="text-1"></path></g></g><g transform="matrix(1,0,0,1,29.33176499999999,45.34653505312869)"><svg viewBox="0 0 316.416 49.236869893742615" height="49.236869893742615" width="316.416"><g><svg viewBox="0 0 316.416 49.236869893742615" height="49.236869893742615" width="316.416"><g><svg viewBox="0 0 316.416 49.236869893742615" height="49.236869893742615" width="316.416"><g><svg viewBox="0 0 316.416 49.236869893742615" height="49.236869893742615" width="316.416"><g id="textblocktransform"><svg viewBox="0 0 316.416 49.236869893742615" height="49.236869893742615" width="316.416" id="textblock"><g><svg viewBox="0 0 316.416 49.236869893742615" height="49.236869893742615" width="316.416"><g transform="matrix(1,0,0,1,0,0)"><svg width="316.416" viewBox="2.35 -32.55 211.73000000000002 32.949999999999996" height="49.236869893742615" data-palette-color="#e1e587"><path d="M26.1-3.6L26.1-8.55Q26.1-8.7 26.1-8.85 26.1-9 26.1-9.15L26.1-9.15Q26.1-10.1 26.08-10.88 26.05-11.65 25.9-12.15L25.9-12.15Q25.85-12.45 25.13-12.63 24.4-12.8 23.63-12.88 22.85-12.95 22.55-12.95L22.55-12.95Q22.4-13.15 22.38-13.65 22.35-14.15 22.55-14.35L22.55-14.35Q24.05-14.3 25.45-14.2 26.85-14.1 28.25-14.1L28.25-14.1Q29.7-14.1 30.98-14.2 32.25-14.3 33.75-14.35L33.75-14.35Q33.95-14.15 33.93-13.65 33.9-13.15 33.75-12.95L33.75-12.95Q33.45-12.95 32.7-12.88 31.95-12.8 31.3-12.63 30.65-12.45 30.55-12.15L30.55-12.15Q30.35-11.55 30.33-10.6 30.3-9.65 30.3-8.55L30.3-8.55 30.3-5.1Q30.3-4.3 30.55-3.9 30.8-3.5 30.8-3.1L30.8-3.1Q30.8-2.9 30.65-2.75 30.5-2.6 29.85-2.25L29.85-2.25Q28.8-1.7 27.43-1.1 26.05-0.5 23.98-0.1 21.9 0.3 18.65 0.3L18.65 0.3Q15.05 0.3 12.05-0.98 9.05-2.25 6.88-4.48 4.7-6.7 3.53-9.58 2.35-12.45 2.35-15.7L2.35-15.7Q2.35-19.15 3.58-22.18 4.8-25.2 7-27.55 9.2-29.9 12.23-31.23 15.25-32.55 18.85-32.55L18.85-32.55Q21.25-32.55 23.88-32.35 26.5-32.15 29.2-31.55L29.2-31.55Q29.2-31.55 29.38-30.53 29.55-29.5 29.75-28.13 29.95-26.75 30.13-25.63 30.3-24.5 30.3-24.3L30.3-24.3Q30.35-24.1 30-23.9 29.65-23.7 29.25-23.7L29.25-23.7Q28.9-23.7 28.65-23.85L28.65-23.85Q28.55-24.4 28.18-25.55 27.8-26.7 26.83-27.95 25.85-29.2 24-30.08 22.15-30.95 19.1-30.95L19.1-30.95Q16.4-30.95 14.2-29.73 12-28.5 10.43-26.43 8.85-24.35 8.03-21.83 7.2-19.3 7.2-16.75L7.2-16.75Q7.2-13.9 7.98-11.15 8.75-8.4 10.33-6.18 11.9-3.95 14.28-2.63 16.65-1.3 19.85-1.3L19.85-1.3Q21.75-1.3 23.23-1.83 24.7-2.35 25.8-2.9L25.8-2.9Q26.05-3 26.08-3.18 26.1-3.35 26.1-3.6L26.1-3.6ZM49.95-21.35L49.95-21.35Q50.9-21.35 51.75-20.93 52.6-20.5 52.95-19.9L52.95-19.9Q53.05-19.7 53.1-19.35 53.15-19 53.15-18.6L53.15-18.6Q53.15-17.25 52.52-16.65 51.9-16.05 51.5-16.05L51.5-16.05Q51-16.05 50.55-16.4 50.1-16.75 49.7-17L49.7-17Q49.35-17.25 48.97-17.43 48.6-17.6 47.9-17.6L47.9-17.6Q46.85-17.6 45.97-16.73 45.1-15.85 44.55-14.8 44-13.75 44-13.2L44-13.2 44-5.65Q44-4.55 44.02-3.6 44.05-2.65 44.25-2.05L44.25-2.05Q44.35-1.8 45.25-1.6 46.15-1.4 47.15-1.33 48.15-1.25 48.45-1.25L48.45-1.25Q48.6-1.05 48.62-0.55 48.65-0.05 48.45 0.15L48.45 0.15Q46.95 0.05 45.4-0.03 43.85-0.1 42.4-0.1L42.4-0.1Q41-0.1 39.7-0.03 38.4 0.05 36.9 0.15L36.9 0.15Q36.7-0.05 36.72-0.55 36.75-1.05 36.9-1.25L36.9-1.25Q37.2-1.25 37.92-1.33 38.65-1.4 39.3-1.6 39.95-1.8 40-2.05L40-2.05Q40.2-2.65 40.22-3.6 40.25-4.55 40.25-5.65L40.25-5.65 40.25-14.75Q40.25-15.25 40.22-16.05 40.2-16.85 40-17.3L40-17.3Q39.85-17.75 39.15-17.93 38.45-18.1 37.75-18.13 37.05-18.15 36.85-18.15L36.85-18.15Q36.8-18.25 36.75-18.75 36.7-19.25 36.85-19.45L36.85-19.45Q38.75-19.7 40.55-20.2 42.35-20.7 43.8-21.5L43.8-21.5Q44-21.5 44.17-21.2 44.35-20.9 44.35-20.7L44.35-20.7Q44.35-20.55 44.25-19.55 44.15-18.55 44.07-17.53 44-16.5 44-16.2L44-16.2Q44-16.05 44.07-16.05 44.15-16.05 44.2-16.1L44.2-16.1Q44.7-17.15 45.62-18.38 46.55-19.6 47.7-20.48 48.85-21.35 49.95-21.35ZM59.04-12.1L59.04-12.1Q58.99-9 60.09-6.9 61.19-4.8 63.04-3.78 64.89-2.75 67.05-2.75L67.05-2.75Q68.39-2.75 69.5-3.23 70.59-3.7 71.34-4.33 72.09-4.95 72.39-5.3L72.39-5.3Q72.44-5.3 72.62-5.13 72.8-4.95 72.8-4.65L72.8-4.65Q72.8-4.25 72.5-3.75L72.5-3.75Q72.05-3.05 71.09-2.08 70.14-1.1 68.69-0.35 67.25 0.4 65.34 0.4L65.34 0.4Q62.49 0.4 60.29-0.95 58.09-2.3 56.84-4.6 55.59-6.9 55.59-9.75L55.59-9.75Q55.59-12.2 56.47-14.33 57.34-16.45 58.77-18.03 60.19-19.6 61.89-20.5 63.59-21.4 65.19-21.4L65.19-21.4Q67.39-21.4 68.82-20.65 70.25-19.9 71.07-18.8 71.89-17.7 72.22-16.6 72.55-15.5 72.55-14.75L72.55-14.75Q72.55-13.7 72.3-13.1 72.05-12.5 71.34-12.45L71.34-12.45Q70.89-12.4 69.57-12.38 68.25-12.35 66.55-12.3 64.84-12.25 63.19-12.2 61.54-12.15 60.39-12.13 59.24-12.1 59.04-12.1ZM59.29-13.9L59.29-13.9 67.25-13.9Q67.69-13.9 68.02-14.15 68.34-14.4 68.39-15.05L68.39-15.05Q68.44-15.65 68.05-16.75 67.64-17.85 66.77-18.75 65.89-19.65 64.39-19.65L64.39-19.65Q62.84-19.65 61.84-18.78 60.84-17.9 60.27-16.78 59.69-15.65 59.47-14.78 59.24-13.9 59.29-13.9ZM79.99-12.1L79.99-12.1Q79.94-9 81.04-6.9 82.14-4.8 83.99-3.78 85.84-2.75 87.99-2.75L87.99-2.75Q89.34-2.75 90.44-3.23 91.54-3.7 92.29-4.33 93.04-4.95 93.34-5.3L93.34-5.3Q93.39-5.3 93.57-5.13 93.74-4.95 93.74-4.65L93.74-4.65Q93.74-4.25 93.44-3.75L93.44-3.75Q92.99-3.05 92.04-2.08 91.09-1.1 89.64-0.35 88.19 0.4 86.29 0.4L86.29 0.4Q83.44 0.4 81.24-0.95 79.04-2.3 77.79-4.6 76.54-6.9 76.54-9.75L76.54-9.75Q76.54-12.2 77.42-14.33 78.29-16.45 79.72-18.03 81.14-19.6 82.84-20.5 84.54-21.4 86.14-21.4L86.14-21.4Q88.34-21.4 89.77-20.65 91.19-19.9 92.02-18.8 92.84-17.7 93.17-16.6 93.49-15.5 93.49-14.75L93.49-14.75Q93.49-13.7 93.24-13.1 92.99-12.5 92.29-12.45L92.29-12.45Q91.84-12.4 90.52-12.38 89.19-12.35 87.49-12.3 85.79-12.25 84.14-12.2 82.49-12.15 81.34-12.13 80.19-12.1 79.99-12.1ZM80.24-13.9L80.24-13.9 88.19-13.9Q88.64-13.9 88.97-14.15 89.29-14.4 89.34-15.05L89.34-15.05Q89.39-15.65 88.99-16.75 88.59-17.85 87.72-18.75 86.84-19.65 85.34-19.65L85.34-19.65Q83.79-19.65 82.79-18.78 81.79-17.9 81.22-16.78 80.64-15.65 80.42-14.78 80.19-13.9 80.24-13.9ZM111.29-21.4L111.29-21.4Q113.94-21.4 115.29-20.3 116.64-19.2 117.12-16.9 117.59-14.6 117.59-11.05L117.59-11.05 117.59-5.65Q117.59-4.55 117.62-3.6 117.64-2.65 117.84-2.05L117.84-2.05Q117.94-1.8 118.57-1.6 119.19-1.4 119.89-1.33 120.59-1.25 120.89-1.25L120.89-1.25Q121.04-1.05 121.07-0.55 121.09-0.05 120.89 0.15L120.89 0.15Q119.39 0.05 118.27-0.03 117.14-0.1 115.69-0.1L115.69-0.1Q114.29-0.1 113.14-0.03 111.99 0.05 110.49 0.15L110.49 0.15Q110.29-0.05 110.32-0.55 110.34-1.05 110.49-1.25L110.49-1.25Q110.79-1.25 111.52-1.33 112.24-1.4 112.89-1.6 113.54-1.8 113.59-2.05L113.59-2.05Q113.79-2.65 113.82-3.6 113.84-4.55 113.84-5.65L113.84-5.65 113.84-10.55Q113.84-13.6 113.44-15.33 113.04-17.05 111.99-17.8 110.94-18.55 109.04-18.55L109.04-18.55Q108.14-18.55 107.07-17.98 105.99-17.4 105.19-16.75 104.39-16.1 104.39-15.85L104.39-15.85 104.39-5.65Q104.39-4.55 104.42-3.6 104.44-2.65 104.64-2.05L104.64-2.05Q104.74-1.8 105.37-1.6 105.99-1.4 106.69-1.33 107.39-1.25 107.69-1.25L107.69-1.25Q107.84-1.05 107.87-0.55 107.89-0.05 107.69 0.15L107.69 0.15Q106.19 0.05 105.07-0.03 103.94-0.1 102.49-0.1L102.49-0.1Q101.09-0.1 99.94-0.03 98.79 0.05 97.29 0.15L97.29 0.15Q97.09-0.05 97.12-0.55 97.14-1.05 97.29-1.25L97.29-1.25Q97.59-1.25 98.32-1.33 99.04-1.4 99.69-1.6 100.34-1.8 100.39-2.05L100.39-2.05Q100.59-2.65 100.62-3.6 100.64-4.55 100.64-5.65L100.64-5.65 100.64-14.55Q100.64-15.05 100.62-15.95 100.59-16.85 100.39-17.3L100.39-17.3Q100.24-17.75 99.54-17.93 98.84-18.1 98.14-18.13 97.44-18.15 97.24-18.15L97.24-18.15Q97.19-18.25 97.14-18.75 97.09-19.25 97.24-19.45L97.24-19.45Q99.14-19.7 100.94-20.2 102.74-20.7 104.19-21.5L104.19-21.5Q104.39-21.5 104.57-21.2 104.74-20.9 104.74-20.7L104.74-20.7Q104.74-20.55 104.67-19.93 104.59-19.3 104.52-18.7 104.44-18.1 104.44-17.9L104.44-17.9Q104.44-17.7 104.54-17.7L104.54-17.7Q104.59-17.7 104.69-17.8L104.69-17.8Q105.19-18.35 106.32-19.2 107.44-20.05 108.79-20.73 110.14-21.4 111.29-21.4ZM137.09-21.4L137.09-21.4Q139.29-21.4 140.66-20.48 142.04-19.55 142.64-17.35L142.64-17.35Q144.24-18.8 146.16-20.1 148.09-21.4 149.84-21.4L149.84-21.4Q152.49-21.4 153.84-20.3 155.19-19.2 155.66-16.9 156.14-14.6 156.14-11.05L156.14-11.05 156.14-5.65Q156.14-4.55 156.16-3.6 156.19-2.65 156.39-2.05L156.39-2.05Q156.49-1.8 157.11-1.6 157.74-1.4 158.44-1.33 159.14-1.25 159.44-1.25L159.44-1.25Q159.59-1.05 159.61-0.55 159.64-0.05 159.44 0.15L159.44 0.15Q157.94 0.05 156.81-0.03 155.69-0.1 154.24-0.1L154.24-0.1Q152.84-0.1 151.69-0.03 150.54 0.05 149.04 0.15L149.04 0.15Q148.84-0.05 148.86-0.55 148.89-1.05 149.04-1.25L149.04-1.25Q149.34-1.25 150.06-1.33 150.79-1.4 151.44-1.6 152.09-1.8 152.14-2.05L152.14-2.05Q152.29-2.55 152.31-3.33 152.34-4.1 152.34-5.05L152.34-5.05Q152.34-5.2 152.34-5.35 152.34-5.5 152.34-5.65L152.34-5.65 152.34-10.9Q152.34-13.35 152.01-15.05 151.69-16.75 150.74-17.65 149.79-18.55 147.79-18.55L147.79-18.55Q146.59-18.55 145.49-17.93 144.39-17.3 143.69-16.63 142.99-15.95 142.99-15.75L142.99-15.75Q142.99-15.7 143.01-15.48 143.04-15.25 143.04-15.15L143.04-15.15Q143.14-14.45 143.19-13.4 143.24-12.35 143.24-11.65L143.24-11.65 143.24-5.65Q143.24-4.55 143.26-3.6 143.29-2.65 143.49-2.05L143.49-2.05Q143.59-1.8 144.21-1.6 144.84-1.4 145.54-1.33 146.24-1.25 146.54-1.25L146.54-1.25Q146.69-1.05 146.71-0.55 146.74-0.05 146.54 0.15L146.54 0.15Q145.04 0.05 143.91-0.03 142.79-0.1 141.34-0.1L141.34-0.1Q139.94-0.1 138.79-0.03 137.64 0.05 136.14 0.15L136.14 0.15Q135.94-0.05 135.96-0.55 135.99-1.05 136.14-1.25L136.14-1.25Q136.44-1.25 137.16-1.33 137.89-1.4 138.54-1.6 139.19-1.8 139.24-2.05L139.24-2.05Q139.44-2.65 139.46-3.6 139.49-4.55 139.49-5.65L139.49-5.65 139.49-10.65Q139.49-15.1 138.51-16.82 137.54-18.55 134.89-18.55L134.89-18.55Q133.79-18.55 132.74-18 131.69-17.45 131.01-16.82 130.34-16.2 130.34-15.85L130.34-15.85 130.34-5.65Q130.34-4.55 130.36-3.6 130.39-2.65 130.59-2.05L130.59-2.05Q130.69-1.8 131.31-1.6 131.94-1.4 132.64-1.33 133.34-1.25 133.64-1.25L133.64-1.25Q133.79-1.05 133.81-0.55 133.84-0.05 133.64 0.15L133.64 0.15Q132.14 0.05 131.01-0.03 129.89-0.1 128.44-0.1L128.44-0.1Q127.04-0.1 125.89-0.03 124.74 0.05 123.24 0.15L123.24 0.15Q123.04-0.05 123.06-0.55 123.09-1.05 123.24-1.25L123.24-1.25Q123.54-1.25 124.26-1.33 124.99-1.4 125.64-1.6 126.29-1.8 126.34-2.05L126.34-2.05Q126.54-2.65 126.56-3.6 126.59-4.55 126.59-5.65L126.59-5.65 126.59-14.55Q126.59-15.05 126.56-15.95 126.54-16.85 126.34-17.3L126.34-17.3Q126.19-17.75 125.49-17.93 124.79-18.1 124.09-18.13 123.39-18.15 123.19-18.15L123.19-18.15Q123.14-18.25 123.09-18.75 123.04-19.25 123.19-19.45L123.19-19.45Q125.09-19.7 126.89-20.2 128.69-20.7 130.14-21.5L130.14-21.5Q130.34-21.5 130.51-21.2 130.69-20.9 130.69-20.7L130.69-20.7Q130.69-20.55 130.61-20 130.54-19.45 130.46-18.9 130.39-18.35 130.39-18.15L130.39-18.15Q130.39-17.95 130.49-17.95L130.49-17.95Q130.54-17.95 130.64-18.05L130.64-18.05Q131.24-18.6 132.24-19.38 133.24-20.15 134.51-20.78 135.79-21.4 137.09-21.4ZM171.79-21.3L171.79-21.3Q173.19-21.3 174.41-20.4 175.64-19.5 176.39-18 177.14-16.5 177.14-14.6L177.14-14.6 177.14-4.55Q177.14-3.6 177.49-2.93 177.84-2.25 178.64-2.25L178.64-2.25Q179.34-2.25 179.74-2.55 180.14-2.85 180.24-2.9L180.24-2.9Q180.34-2.9 180.39-2.75 180.44-2.6 180.44-2.5L180.44-2.5Q180.44-1.95 180.19-1.55L180.19-1.55Q179.89-1.3 179.21-0.85 178.54-0.4 177.81-0.05 177.09 0.3 176.54 0.3L176.54 0.3Q175.49 0.3 174.66-0.75 173.84-1.8 173.59-2.9L173.59-2.9Q173.39-2.7 172.66-2.15 171.94-1.6 170.99-1.03 170.04-0.45 169.11-0.03 168.19 0.4 167.54 0.4L167.54 0.4Q165.14 0.4 163.49-1.23 161.84-2.85 161.84-5.2L161.84-5.2Q161.84-6.7 162.66-7.78 163.49-8.85 164.29-9.15L164.29-9.15Q165.69-9.65 167.41-10.23 169.14-10.8 170.64-11.35 172.14-11.9 172.84-12.2L172.84-12.2Q173.24-12.35 173.34-12.58 173.44-12.8 173.44-13.45L173.44-13.45 173.44-14.75Q173.44-15.85 172.89-16.93 172.34-18 171.39-18.73 170.44-19.45 169.24-19.45L169.24-19.45Q167.99-19.45 167.39-18.65 166.79-17.85 166.54-16.4L166.54-16.4Q166.09-14.05 164.24-14.05L164.24-14.05Q163.44-14.05 163.01-14.7 162.59-15.35 162.59-16.1L162.59-16.1Q162.59-16.25 162.69-16.68 162.79-17.1 162.94-17.3L162.94-17.3Q163.69-18 165.09-18.95 166.49-19.9 168.26-20.6 170.04-21.3 171.79-21.3ZM169.19-2.25L169.19-2.25Q170.04-2.25 171.04-2.65 172.04-3.05 172.74-3.53 173.44-4 173.44-4.25L173.44-4.25 173.44-10.9Q172.49-10.6 171.04-10.15 169.59-9.7 168.89-9.45L168.89-9.45Q167.59-8.95 166.74-8 165.89-7.05 165.89-5.65L165.89-5.65Q165.89-4.3 166.84-3.28 167.79-2.25 169.19-2.25ZM195.83-21.35L195.83-21.35Q196.78-21.35 197.63-20.93 198.48-20.5 198.83-19.9L198.83-19.9Q198.93-19.7 198.98-19.35 199.03-19 199.03-18.6L199.03-18.6Q199.03-17.25 198.41-16.65 197.78-16.05 197.38-16.05L197.38-16.05Q196.88-16.05 196.43-16.4 195.98-16.75 195.58-17L195.58-17Q195.23-17.25 194.86-17.43 194.48-17.6 193.78-17.6L193.78-17.6Q192.73-17.6 191.86-16.73 190.98-15.85 190.43-14.8 189.88-13.75 189.88-13.2L189.88-13.2 189.88-5.65Q189.88-4.55 189.91-3.6 189.93-2.65 190.13-2.05L190.13-2.05Q190.23-1.8 191.13-1.6 192.03-1.4 193.03-1.33 194.03-1.25 194.33-1.25L194.33-1.25Q194.48-1.05 194.51-0.55 194.53-0.05 194.33 0.15L194.33 0.15Q192.83 0.05 191.28-0.03 189.73-0.1 188.28-0.1L188.28-0.1Q186.88-0.1 185.58-0.03 184.28 0.05 182.78 0.15L182.78 0.15Q182.58-0.05 182.61-0.55 182.63-1.05 182.78-1.25L182.78-1.25Q183.08-1.25 183.81-1.33 184.53-1.4 185.18-1.6 185.83-1.8 185.88-2.05L185.88-2.05Q186.08-2.65 186.11-3.6 186.13-4.55 186.13-5.65L186.13-5.65 186.13-14.75Q186.13-15.25 186.11-16.05 186.08-16.85 185.88-17.3L185.88-17.3Q185.73-17.75 185.03-17.93 184.33-18.1 183.63-18.13 182.93-18.15 182.73-18.15L182.73-18.15Q182.68-18.25 182.63-18.75 182.58-19.25 182.73-19.45L182.73-19.45Q184.63-19.7 186.43-20.2 188.23-20.7 189.68-21.5L189.68-21.5Q189.88-21.5 190.06-21.2 190.23-20.9 190.23-20.7L190.23-20.7Q190.23-20.55 190.13-19.55 190.03-18.55 189.96-17.53 189.88-16.5 189.88-16.2L189.88-16.2Q189.88-16.05 189.96-16.05 190.03-16.05 190.08-16.1L190.08-16.1Q190.58-17.15 191.51-18.38 192.43-19.6 193.58-20.48 194.73-21.35 195.83-21.35ZM207.53-27.5L207.53-21.1 213.83-21.1Q214.08-21.1 214.08-20.55L214.08-20.55Q214.08-19.8 213.38-19.1L213.38-19.1 207.53-19.1 207.53-6.3Q207.53-2.3 210.78-2.3L210.78-2.3Q211.88-2.3 212.78-2.75 213.68-3.2 213.93-3.4L213.93-3.4Q214.08-3.35 214.08-3.1L214.08-3.1Q214.08-2.55 213.88-2.35L213.88-2.35Q213.53-1.95 212.81-1.3 212.08-0.65 211.08-0.15 210.08 0.35 208.88 0.35L208.88 0.35Q207.63 0.35 206.46-0.1 205.28-0.55 204.53-1.7 203.78-2.85 203.78-4.95L203.78-4.95 203.78-19.1 200.93-19.1Q200.83-19.1 200.78-19.28 200.73-19.45 200.73-19.55L200.73-19.55Q200.73-19.65 201.03-20.03 201.33-20.4 201.66-20.75 201.98-21.1 201.98-21.1L201.98-21.1 203.78-21.1 203.78-24.15Q204.28-24.7 204.96-25.43 205.63-26.15 206.18-26.78 206.73-27.4 206.78-27.45L206.78-27.45Q206.98-27.65 207.26-27.65 207.53-27.65 207.53-27.5L207.53-27.5Z" opacity="1" transform="matrix(1,0,0,1,0,0)" fill="#e1e587" class="wordmark-text-0" data-fill-palette-color="primary" id="text-0"></path></svg></g></svg></g></svg></g></svg></g></svg></g></svg></g></svg></g></svg></g><defs></defs></svg><rect width="375.07953" height="139.92994" fill="none" stroke="none" visibility="hidden"></rect></g></svg></g></svg>